<svg width="42" height="44" viewBox="0 0 42 44" fill="none" xmlns="http://www.w3.org/2000/svg">
<rect x="1.5" y="2.5" width="39" height="39" rx="19.5" stroke="black"/>
<rect x="5" y="6" width="32" height="32" rx="16" fill="black"/>
<g filter="url(#filter0_f_160_418)">
<path d="M18.8456 28.3873C18.7204 28.3706 18.6236 28.3322 18.5527 28.2909C18.3148 28.1637 17.93 27.8002 18.0594 26.83L18.5975 22.7925L17.1328 22.5972C16.294 22.4854 16.0461 22.051 15.9706 21.8052C15.8958 21.5532 15.8662 21.0587 16.5013 20.4999L21.9574 15.7482C22.6927 15.1072 23.2056 15.2265 23.4435 15.3538C23.6813 15.481 24.0661 15.8445 23.9368 16.8147L23.3986 20.8522L24.8634 21.0475C25.7022 21.1593 25.9501 21.5937 26.0256 21.8395C26.1003 22.0915 26.13 22.586 25.4948 23.1448L20.0387 27.8965C19.5267 28.3443 19.1211 28.424 18.8456 28.3873Z" fill="white"/>
</g>
<path d="M18.8456 28.3884C18.7204 28.3717 18.6236 28.3334 18.5527 28.292C18.3148 28.1648 17.93 27.8013 18.0594 26.8311L18.5975 22.7936L17.1328 22.5983C16.294 22.4865 16.0461 22.0521 15.9706 21.8063C15.8958 21.5543 15.8662 21.0598 16.5013 20.501L21.9574 15.7493C22.6927 15.1083 23.2056 15.2276 23.4435 15.3549C23.6813 15.4821 24.0661 15.8456 23.9368 16.8159L23.3986 20.8533L24.8634 21.0486C25.7022 21.1604 25.9501 21.5948 26.0256 21.8406C26.1003 22.0926 26.13 22.5872 25.4948 23.146L20.0387 27.8976C19.5267 28.3454 19.1211 28.4251 18.8456 28.3884Z" fill="white"/>
<defs>
<filter id="filter0_f_160_418" x="0.732007" y="0.0530062" width="40.5322" height="43.5422" filterUnits="userSpaceOnUse" color-interpolation-filters="sRGB">
<feFlood flood-opacity="0" result="BackgroundImageFix"/>
<feBlend mode="normal" in="SourceGraphic" in2="BackgroundImageFix" result="shape"/>
<feGaussianBlur stdDeviation="7.6" result="effect1_foregroundBlur_160_418"/>
</filter>
</defs>
</svg>
