<svg width="360" height="1350" viewBox="0 0 360 1350" fill="none" xmlns="http://www.w3.org/2000/svg">
<rect width="360" height="1350" fill="url(#paint0_linear_120_632)"/>
<path d="M32.1659 250.09C32.623 249.979 32.9799 249.622 33.0914 249.165L33.8311 246.133C33.8742 245.956 34.1256 245.956 34.1689 246.133L34.911 249.165C35.0227 249.622 35.3793 249.979 35.836 250.09L38.8674 250.831C39.0442 250.874 39.0442 251.126 38.8674 251.169L35.836 251.91C35.3793 252.021 35.0227 252.378 34.911 252.835L34.1689 255.867C34.1256 256.044 33.8742 256.044 33.8311 255.867L33.0914 252.835C32.9799 252.378 32.623 252.021 32.1659 251.91L29.1326 251.169C28.9558 251.126 28.9558 250.874 29.1326 250.831L32.1659 250.09Z" fill="white" fill-opacity="0.7"/>
<path d="M304.166 240.09C304.623 239.979 304.98 239.622 305.091 239.165L305.831 236.133C305.874 235.956 306.126 235.956 306.169 236.133L306.911 239.165C307.023 239.622 307.379 239.979 307.836 240.09L310.867 240.831C311.044 240.874 311.044 241.126 310.867 241.169L307.836 241.91C307.379 242.021 307.023 242.378 306.911 242.835L306.169 245.867C306.126 246.044 305.874 246.044 305.831 245.867L305.091 242.835C304.98 242.378 304.623 242.021 304.166 241.91L301.133 241.169C300.956 241.126 300.956 240.874 301.133 240.831L304.166 240.09Z" fill="white" fill-opacity="0.7"/>
<path d="M59.1659 57.0903C59.623 56.9786 59.9799 56.6217 60.0914 56.1645L60.8311 53.1327C60.8742 52.9558 61.1256 52.9558 61.1689 53.1325L61.911 56.1654C62.0227 56.622 62.3793 56.9786 62.836 57.0902L65.8674 57.8311C66.0442 57.8743 66.0442 58.1257 65.8674 58.1689L62.836 58.9098C62.3793 59.0214 62.0227 59.378 61.911 59.8346L61.1689 62.8675C61.1256 63.0442 60.8742 63.0442 60.8311 62.8673L60.0914 59.8355C59.9799 59.3783 59.623 59.0214 59.1659 58.9097L56.1326 58.1689C55.9558 58.1257 55.9558 57.8743 56.1326 57.8311L59.1659 57.0903Z" fill="white" fill-opacity="0.7"/>
<path d="M199.166 90.0903C199.623 89.9786 199.98 89.6217 200.091 89.1645L200.831 86.1327C200.874 85.9558 201.126 85.9558 201.169 86.1325L201.911 89.1654C202.023 89.622 202.379 89.9786 202.836 90.0902L205.867 90.8311C206.044 90.8743 206.044 91.1257 205.867 91.1689L202.836 91.9098C202.379 92.0214 202.023 92.378 201.911 92.8346L201.169 95.8675C201.126 96.0442 200.874 96.0442 200.831 95.8673L200.091 92.8355C199.98 92.3783 199.623 92.0214 199.166 91.9097L196.133 91.1689C195.956 91.1257 195.956 90.8743 196.133 90.8311L199.166 90.0903Z" fill="white" fill-opacity="0.7"/>
<path d="M129.216 201.863C129.536 201.785 129.786 201.535 129.864 201.215L130.382 199.093C130.412 198.969 130.588 198.969 130.618 199.093L131.138 201.216C131.216 201.535 131.466 201.785 131.785 201.863L133.907 202.382C134.031 202.412 134.031 202.588 133.907 202.618L131.785 203.137C131.466 203.215 131.216 203.465 131.138 203.784L130.618 205.907C130.588 206.031 130.412 206.031 130.382 205.907L129.864 203.785C129.786 203.465 129.536 203.215 129.216 203.137L127.093 202.618C126.969 202.588 126.969 202.412 127.093 202.382L129.216 201.863Z" fill="white" fill-opacity="0.7"/>
<g opacity="0.7">
<path d="M300.627 1110.39C306.544 1109.32 311.142 1111.18 312.701 1112.24C312.701 1112.24 313.014 1112.4 313.791 1113.2C315.345 1114.79 317.576 1126.59 315.051 1127.66C313.032 1128.52 310.584 1124.32 309.613 1122.11C310.092 1126.3 310.42 1134.84 307.901 1135.44C304.751 1136.19 302.377 1123.13 303.416 1128.8C304.456 1134.46 301.569 1140.08 299.229 1138.49C297.358 1137.21 297.121 1134.91 297.236 1133.91C295.424 1136.93 291.149 1142.08 288.548 1138.53C285.947 1134.99 290.351 1131.43 292.878 1130.1C291.046 1130.08 287.577 1129.35 288.361 1126.59C289.144 1123.84 295.413 1123.11 298.45 1123.09C295.782 1122.9 290.516 1121.78 290.799 1118.77C291.153 1115 306.842 1116.74 304.022 1116.08C301.201 1115.42 293.23 1111.72 300.627 1110.39Z" fill="url(#paint1_linear_120_632)"/>
<path d="M316.349 1108.98C316.862 1107.98 316.472 1107.21 316.213 1106.94C315.417 1107.98 313.452 1111.19 310.633 1114.74C305.061 1121.74 295.69 1131.54 293.149 1134.18C290.608 1136.83 290.854 1136.62 292.668 1135.12C294.728 1133.42 310.456 1116.62 311.41 1115.53C312.364 1114.44 315.707 1110.23 316.349 1108.98Z" fill="#9B1C1D"/>
<path d="M299.506 1127.18C298.986 1126.92 296.372 1126.52 290.083 1127.08" stroke="#9B1C1D" stroke-width="0.280961"/>
<path d="M300.771 1126.72C301.034 1127.24 301.411 1129.85 300.806 1136.14" stroke="#9B1C1D" stroke-width="0.280961"/>
<path d="M305.659 1121.83C306.008 1122.3 307.292 1126.32 307.773 1132.61" stroke="#9B1C1D" stroke-width="0.280961"/>
<path d="M310.683 1114.64C310.212 1114.29 306.195 1113.02 299.898 1112.56" stroke="#9B1C1D" stroke-width="0.280961"/>
<path d="M304.026 1121.45C303.541 1121.13 299.475 1120.02 293.164 1119.83" stroke="#9B1C1D" stroke-width="0.280961"/>
<path d="M311.392 1115.31C311.741 1115.78 313.033 1118.21 313.514 1124.5" stroke="#9B1C1D" stroke-width="0.280961"/>
<path d="M284 1150.5C288.5 1150.84 299.4 1150.1 307 1144.5" stroke="black" stroke-opacity="0.4" stroke-width="0.4"/>
<path d="M297.293 1145.34C301.579 1143.93 311.371 1139.08 316.253 1131" stroke="black" stroke-opacity="0.4" stroke-width="0.4"/>
</g>
<g opacity="0.7">
<path d="M71.5128 1252.47C66.055 1251.48 61.8137 1253.2 60.3753 1254.18C60.3753 1254.18 60.0869 1254.33 59.3703 1255.06C57.9371 1256.52 55.8792 1267.41 58.2078 1268.4C60.0706 1269.19 62.3282 1265.31 63.2242 1263.28C62.7823 1267.14 62.4794 1275.02 64.8033 1275.57C67.7083 1276.27 69.8986 1264.22 68.9398 1269.45C67.9811 1274.67 70.6439 1279.86 72.8014 1278.39C74.5275 1277.21 74.7465 1275.08 74.6403 1274.17C76.3118 1276.95 80.2545 1281.7 82.6538 1278.43C85.0531 1275.16 80.9906 1271.88 78.6594 1270.65C80.3495 1270.63 83.549 1269.96 82.8267 1267.42C82.1043 1264.87 76.3215 1264.2 73.5203 1264.18C75.9815 1264.01 80.8384 1262.97 80.5771 1260.2C80.2505 1256.72 65.7798 1258.32 68.3812 1257.72C70.9825 1257.11 78.3352 1253.7 71.5128 1252.47Z" fill="url(#paint2_linear_120_632)"/>
<path d="M57.0111 1251.17C56.5377 1250.25 56.8971 1249.53 57.136 1249.29C57.8706 1250.25 59.6826 1253.21 62.2829 1256.48C67.4222 1262.94 76.0658 1271.98 78.4097 1274.42C80.7536 1276.85 80.5272 1276.67 78.8535 1275.28C76.9534 1273.71 62.4463 1258.21 61.5663 1257.21C60.6864 1256.21 57.6029 1252.33 57.0111 1251.17Z" fill="#9B1C1D"/>
<path d="M72.5461 1267.96C73.0264 1267.71 75.4372 1267.35 81.2378 1267.87" stroke="#9B1C1D" stroke-width="0.259152"/>
<path d="M71.3798 1267.53C71.1365 1268.01 70.7895 1270.42 71.3474 1276.22" stroke="#9B1C1D" stroke-width="0.259152"/>
<path d="M66.8712 1263.02C66.549 1263.46 65.3646 1267.16 64.921 1272.97" stroke="#9B1C1D" stroke-width="0.259152"/>
<path d="M62.237 1256.39C62.6713 1256.07 66.3768 1254.9 72.185 1254.47" stroke="#9B1C1D" stroke-width="0.259152"/>
<path d="M68.3772 1262.68C68.8244 1262.37 72.5753 1261.36 78.3961 1261.17" stroke="#9B1C1D" stroke-width="0.259152"/>
<path d="M61.5829 1257.01C61.2607 1257.44 60.0692 1259.68 59.6257 1265.49" stroke="#9B1C1D" stroke-width="0.259152"/>
<path d="M86.8488 1289.47C82.6981 1289.77 72.6442 1289.1 65.6342 1283.93" stroke="black" stroke-opacity="0.4" stroke-width="0.36895"/>
<path d="M74.5872 1284.7C70.6342 1283.4 61.6024 1278.93 57.0992 1271.48" stroke="black" stroke-opacity="0.4" stroke-width="0.36895"/>
</g>
<g opacity="0.7">
<path d="M249.98 1042.83C246.941 1042.28 244.579 1043.24 243.778 1043.78C243.778 1043.78 243.617 1043.87 243.218 1044.27C242.42 1045.09 241.274 1051.15 242.571 1051.7C243.608 1052.14 244.865 1049.98 245.364 1048.85C245.118 1051 244.95 1055.39 246.244 1055.7C247.862 1056.08 249.081 1049.37 248.547 1052.28C248.014 1055.19 249.496 1058.08 250.698 1057.26C251.659 1056.61 251.781 1055.42 251.722 1054.91C252.653 1056.46 254.848 1059.11 256.185 1057.29C257.521 1055.47 255.258 1053.64 253.96 1052.95C254.901 1052.94 256.683 1052.57 256.281 1051.15C255.879 1049.74 252.658 1049.36 251.098 1049.35C252.469 1049.26 255.174 1048.68 255.028 1047.13C254.846 1045.2 246.788 1046.09 248.236 1045.75C249.685 1045.41 253.78 1043.52 249.98 1042.83Z" fill="url(#paint3_linear_120_632)"/>
<path d="M241.904 1042.11C241.641 1041.6 241.841 1041.2 241.974 1041.06C242.383 1041.59 243.392 1043.24 244.84 1045.06C247.702 1048.66 252.516 1053.7 253.821 1055.05C255.126 1056.41 255 1056.31 254.068 1055.53C253.01 1054.66 244.931 1046.03 244.441 1045.47C243.951 1044.91 242.234 1042.75 241.904 1042.11Z" fill="#9B1C1D"/>
<path d="M250.556 1051.46C250.823 1051.32 252.166 1051.12 255.396 1051.41" stroke="#9B1C1D" stroke-width="0.144319"/>
<path d="M249.906 1051.22C249.771 1051.48 249.577 1052.83 249.888 1056.06" stroke="#9B1C1D" stroke-width="0.144319"/>
<path d="M247.395 1048.71C247.216 1048.95 246.556 1051.01 246.309 1054.24" stroke="#9B1C1D" stroke-width="0.144319"/>
<path d="M244.815 1045.01C245.057 1044.83 247.12 1044.18 250.355 1043.95" stroke="#9B1C1D" stroke-width="0.144319"/>
<path d="M248.234 1048.51C248.483 1048.35 250.572 1047.78 253.814 1047.68" stroke="#9B1C1D" stroke-width="0.144319"/>
<path d="M244.45 1045.36C244.271 1045.6 243.607 1046.85 243.36 1050.08" stroke="#9B1C1D" stroke-width="0.144319"/>
<path d="M258.521 1063.43C256.209 1063.6 250.61 1063.23 246.707 1060.35" stroke="black" stroke-opacity="0.4" stroke-width="0.205465"/>
<path d="M251.692 1060.78C249.491 1060.06 244.461 1057.57 241.954 1053.42" stroke="black" stroke-opacity="0.4" stroke-width="0.205465"/>
</g>
<g opacity="0.7">
<path d="M21.5421 1189.83C24.5815 1189.28 26.9435 1190.24 27.7445 1190.78C27.7445 1190.78 27.9051 1190.87 28.3042 1191.27C29.1023 1192.09 30.2483 1198.15 28.9516 1198.7C27.9142 1199.14 26.6569 1196.98 26.158 1195.85C26.4041 1198 26.5728 1202.39 25.2786 1202.7C23.6608 1203.08 22.4411 1196.37 22.975 1199.28C23.5089 1202.19 22.026 1205.08 20.8245 1204.26C19.8633 1203.61 19.7413 1202.42 19.8004 1201.91C18.8696 1203.46 16.6739 1206.11 15.3378 1204.29C14.0017 1202.47 16.264 1200.64 17.5622 1199.95C16.621 1199.94 14.8393 1199.57 15.2415 1198.15C15.6438 1196.74 18.8642 1196.36 20.4241 1196.35C19.0536 1196.26 16.3488 1195.68 16.4943 1194.13C16.6762 1192.2 24.7348 1193.09 23.2861 1192.75C21.8374 1192.41 17.7428 1190.52 21.5421 1189.83Z" fill="url(#paint4_linear_120_632)"/>
<path d="M29.618 1189.11C29.8817 1188.6 29.6815 1188.2 29.5485 1188.06C29.1394 1188.59 28.1303 1190.24 26.6823 1192.06C23.8202 1195.66 19.0067 1200.69 17.7014 1202.05C16.3961 1203.41 16.5222 1203.31 17.4542 1202.53C18.5124 1201.66 26.5913 1193.03 27.0813 1192.47C27.5713 1191.91 29.2885 1189.75 29.618 1189.11Z" fill="#9B1C1D"/>
<path d="M20.9667 1198.46C20.6993 1198.32 19.3567 1198.12 16.1264 1198.41" stroke="#9B1C1D" stroke-width="0.144319"/>
<path d="M21.6163 1198.22C21.7517 1198.48 21.945 1199.83 21.6343 1203.06" stroke="#9B1C1D" stroke-width="0.144319"/>
<path d="M24.127 1195.71C24.3065 1195.95 24.966 1198.01 25.2131 1201.24" stroke="#9B1C1D" stroke-width="0.144319"/>
<path d="M26.7077 1192.01C26.4659 1191.83 24.4023 1191.18 21.1678 1190.95" stroke="#9B1C1D" stroke-width="0.144319"/>
<path d="M23.2884 1195.51C23.0393 1195.35 20.9505 1194.78 17.7089 1194.68" stroke="#9B1C1D" stroke-width="0.144319"/>
<path d="M27.072 1192.36C27.2515 1192.6 27.915 1193.85 28.162 1197.08" stroke="#9B1C1D" stroke-width="0.144319"/>
<path d="M13.0016 1210.43C15.3131 1210.6 20.912 1210.23 24.8158 1207.35" stroke="black" stroke-opacity="0.4" stroke-width="0.205465"/>
<path d="M19.83 1207.78C22.0314 1207.06 27.0611 1204.57 29.5689 1200.42" stroke="black" stroke-opacity="0.4" stroke-width="0.205465"/>
</g>
<defs>
<linearGradient id="paint0_linear_120_632" x1="180" y1="0" x2="180" y2="1350" gradientUnits="userSpaceOnUse">
<stop offset="0.27163" stop-color="#3B2D89"/>
<stop offset="0.348865" stop-color="#4E3B81"/>
<stop offset="0.426246" stop-color="#725671"/>
<stop offset="0.526598" stop-color="#B08555"/>
<stop offset="0.631787" stop-color="#D19E47"/>
<stop offset="0.714004" stop-color="#E5AD3E"/>
</linearGradient>
<linearGradient id="paint1_linear_120_632" x1="307.39" y1="1131.64" x2="295.415" y2="1120.36" gradientUnits="userSpaceOnUse">
<stop offset="0.505235" stop-color="#C12122"/>
<stop offset="0.517965" stop-color="#D52620"/>
</linearGradient>
<linearGradient id="paint2_linear_120_632" x1="65.2742" y1="1272.07" x2="76.3195" y2="1261.66" gradientUnits="userSpaceOnUse">
<stop offset="0.505235" stop-color="#C12122"/>
<stop offset="0.517965" stop-color="#D52620"/>
</linearGradient>
<linearGradient id="paint3_linear_120_632" x1="246.506" y1="1053.74" x2="252.657" y2="1047.95" gradientUnits="userSpaceOnUse">
<stop offset="0.505235" stop-color="#C12122"/>
<stop offset="0.517965" stop-color="#D52620"/>
</linearGradient>
<linearGradient id="paint4_linear_120_632" x1="25.0164" y1="1200.74" x2="18.8653" y2="1194.95" gradientUnits="userSpaceOnUse">
<stop offset="0.505235" stop-color="#C12122"/>
<stop offset="0.517965" stop-color="#D52620"/>
</linearGradient>
</defs>
</svg>
