<svg width="12" height="8" viewBox="0 0 12 8" fill="none" xmlns="http://www.w3.org/2000/svg">
<path d="M7.88658 0.852112C7.47236 0.852112 7.13658 1.1879 7.13658 1.60211C7.13658 2.01633 7.47236 2.35211 7.88658 2.35211V0.852112ZM10.5229 2.35211C10.9372 2.35211 11.2729 2.01633 11.2729 1.60211C11.2729 1.1879 10.9372 0.852112 10.5229 0.852112V2.35211ZM11.2726 1.60227C11.2726 1.18806 10.9368 0.852273 10.5226 0.852273C10.1084 0.852273 9.77262 1.18806 9.77262 1.60227H11.2726ZM9.77262 4.23864C9.77262 4.65285 10.1084 4.98864 10.5226 4.98864C10.9368 4.98864 11.2726 4.65285 11.2726 4.23864H9.77262ZM11.0527 2.13254C11.3456 1.83965 11.3456 1.36477 11.0527 1.07188C10.7598 0.778988 10.285 0.778988 9.99208 1.07188L11.0527 2.13254ZM5.90877 6.21585L5.37844 6.74618C5.51909 6.88683 5.70986 6.96585 5.90877 6.96585C6.10768 6.96585 6.29845 6.88683 6.4391 6.74618L5.90877 6.21585ZM3.9315 4.23858L4.46183 3.70825C4.32118 3.56759 4.13041 3.48858 3.9315 3.48858C3.73259 3.48858 3.54182 3.56759 3.40117 3.70825L3.9315 4.23858ZM0.764805 6.34461C0.471912 6.6375 0.471912 7.11238 0.764805 7.40527C1.0577 7.69816 1.53257 7.69816 1.82547 7.40527L0.764805 6.34461ZM7.88658 2.35211H10.5229V0.852112H7.88658V2.35211ZM9.77262 1.60227V4.23864H11.2726V1.60227H9.77262ZM9.99208 1.07188L5.37844 5.68552L6.4391 6.74618L11.0527 2.13254L9.99208 1.07188ZM6.4391 5.68552L4.46183 3.70825L3.40117 4.76891L5.37844 6.74618L6.4391 5.68552ZM3.40117 3.70825L0.764805 6.34461L1.82547 7.40527L4.46183 4.76891L3.40117 3.70825Z" fill="#5EAFFF"/>
</svg>
