<svg width="12" height="8" viewBox="0 0 12 8" fill="none" xmlns="http://www.w3.org/2000/svg">
<path d="M8.00021 7.5835C7.586 7.5835 7.25021 7.24771 7.25021 6.8335C7.25021 6.41928 7.586 6.0835 8.00021 6.0835V7.5835ZM10.6669 6.0835C11.0811 6.0835 11.4169 6.41928 11.4169 6.8335C11.4169 7.24771 11.0811 7.5835 10.6669 7.5835V6.0835ZM11.4166 6.83333C11.4166 7.24754 11.0808 7.58333 10.6666 7.58333C10.2524 7.58333 9.91657 7.24754 9.91657 6.83333H11.4166ZM9.91657 4.16666C9.91657 3.75245 10.2524 3.41666 10.6666 3.41666C11.0808 3.41666 11.4166 3.75245 11.4166 4.16666H9.91657ZM11.1967 6.30305C11.4896 6.59594 11.4896 7.07082 11.1967 7.36371C10.9038 7.6566 10.4289 7.6566 10.136 7.36371L11.1967 6.30305ZM5.99967 2.16671L5.46934 1.63638C5.61 1.49573 5.80076 1.41671 5.99967 1.41671C6.19859 1.41671 6.38935 1.49573 6.53 1.63638L5.99967 2.16671ZM3.99967 4.16671L4.53 4.69704C4.38935 4.83769 4.19859 4.91671 3.99967 4.91671C3.80076 4.91671 3.61 4.83769 3.46934 4.69704L3.99967 4.16671ZM0.802678 2.03037C0.509785 1.73748 0.509785 1.26261 0.802678 0.969715C1.09557 0.676821 1.57044 0.676821 1.86334 0.969715L0.802678 2.03037ZM8.00021 6.0835H10.6669V7.5835H8.00021V6.0835ZM9.91657 6.83333V4.16666H11.4166V6.83333H9.91657ZM10.136 7.36371L5.46934 2.69704L6.53 1.63638L11.1967 6.30305L10.136 7.36371ZM6.53 2.69704L4.53 4.69704L3.46934 3.63638L5.46934 1.63638L6.53 2.69704ZM3.46934 4.69704L0.802678 2.03037L1.86334 0.969715L4.53 3.63638L3.46934 4.69704Z" fill="white"/>
</svg>
