<svg width="20" height="16" viewBox="0 0 20 16" fill="none" xmlns="http://www.w3.org/2000/svg">
<g clip-path="url(#clip0_1_822)">
<path d="M14.4351 1.46179L13.9287 0.955398C13.7271 0.75423 13.4539 0.641252 13.1691 0.641252C12.8843 0.641253 12.6111 0.75423 12.4095 0.955398L11.9031 1.46179C11.7015 1.26062 11.4283 1.14764 11.1435 1.14764C10.8587 1.14764 10.5855 1.26062 10.3839 1.46179L9.87754 1.96818C9.67638 2.16979 9.5634 2.44296 9.5634 2.72777C9.5634 3.01257 9.67638 3.28575 9.87754 3.48736L11.1435 4.75334L6.586 9.31086L5.32002 8.04488C5.11841 7.84371 4.84524 7.73073 4.56043 7.73073C4.27563 7.73073 4.00245 7.84371 3.80085 8.04488L3.29445 8.55127C3.09329 8.75288 2.98031 9.02605 2.98031 9.31086C2.98031 9.59566 3.09329 9.86884 3.29445 10.0704L2.78806 10.5768C2.58689 10.7784 2.47392 11.0516 2.47392 11.3364C2.47392 11.6212 2.58689 11.8944 2.78806 12.096L3.29445 12.6024C3.093 12.8039 2.97982 13.0771 2.97982 13.362C2.97982 13.6469 3.093 13.9201 3.29445 14.1216C3.49591 14.323 3.76914 14.4362 4.05404 14.4362C4.33894 14.4362 4.61217 14.323 4.81363 14.1216L5.32002 14.628C5.52163 14.8291 5.7948 14.9421 6.07961 14.9421C6.36441 14.9421 6.63759 14.8291 6.83919 14.628L7.34559 14.1216C7.54719 14.3227 7.82037 14.4357 8.10517 14.4357C8.38998 14.4357 8.66315 14.3227 8.86476 14.1216L9.37115 13.6152C9.57232 13.4136 9.6853 13.1404 9.6853 12.8556C9.6853 12.5708 9.57232 12.2976 9.37115 12.096L8.10517 10.83L12.6627 6.27251L13.9287 7.53849C14.1303 7.73966 14.4035 7.85263 14.6883 7.85263C14.9731 7.85263 15.2462 7.73966 15.4479 7.53849L15.9542 7.0321C16.1554 6.83049 16.2684 6.55732 16.2684 6.27251C16.2684 5.9877 16.1554 5.71453 15.9542 5.51292L16.4606 5.00653C16.6618 4.80492 16.7748 4.53175 16.7748 4.24694C16.7748 3.96214 16.6618 3.68896 16.4606 3.48736L15.9542 2.98096C16.1557 2.77951 16.2689 2.50628 16.2689 2.22138C16.2689 1.93648 16.1557 1.66324 15.9542 1.46179C15.7528 1.26033 15.4796 1.14716 15.1947 1.14716C14.9098 1.14716 14.6365 1.26033 14.4351 1.46179ZM15.4479 2.47457L14.9415 1.96818C15.0086 1.90103 15.0997 1.8633 15.1947 1.8633C15.2896 1.8633 15.3807 1.90103 15.4479 1.96818C15.515 2.03533 15.5527 2.12641 15.5527 2.22138C15.5527 2.31634 15.515 2.40742 15.4479 2.47457ZM15.9542 4.50014L15.4479 5.00653L12.4095 1.96818L12.9159 1.46179C12.9831 1.39475 13.0742 1.3571 13.1691 1.35711C13.264 1.35711 13.3551 1.39475 13.4223 1.46179L15.9542 3.99375C16.0213 4.06096 16.0589 4.15201 16.0589 4.24694C16.0589 4.34187 16.0213 4.43293 15.9542 4.50014ZM15.4479 6.52571L14.9415 7.0321C14.8742 7.09913 14.7832 7.13678 14.6883 7.13678C14.5933 7.13678 14.5023 7.09913 14.4351 7.0321L10.3839 2.98096C10.3169 2.91375 10.2793 2.8227 10.2793 2.72777C10.2793 2.63284 10.3169 2.54178 10.3839 2.47457L10.8903 1.96818C10.9575 1.90114 11.0486 1.8635 11.1435 1.8635C11.2385 1.8635 11.3295 1.90114 11.3967 1.96818L15.4479 6.01931C15.5149 6.08653 15.5525 6.17758 15.5525 6.27251C15.5525 6.36744 15.5149 6.45849 15.4479 6.52571ZM8.86476 13.1088L8.35837 13.6152C8.29116 13.6822 8.2001 13.7199 8.10517 13.7199C8.01024 13.7199 7.91919 13.6822 7.85198 13.6152L3.80085 9.56406C3.73381 9.49684 3.69616 9.40579 3.69616 9.31086C3.69616 9.21593 3.73381 9.12488 3.80085 9.05766L4.30724 8.55127C4.37445 8.48423 4.4655 8.44659 4.56043 8.44659C4.65536 8.44659 4.74642 8.48423 4.81363 8.55127L8.86476 12.6024C8.9318 12.6696 8.96945 12.7607 8.96945 12.8556C8.96945 12.9505 8.9318 13.0416 8.86476 13.1088ZM5.82641 14.1216L3.29445 11.5896C3.22742 11.5224 3.18977 11.4314 3.18977 11.3364C3.18977 11.2415 3.22742 11.1504 3.29445 11.0832L3.80085 10.5768L6.83919 13.6152L6.3328 14.1216C6.26559 14.1886 6.17454 14.2263 6.07961 14.2263C5.98468 14.2263 5.89362 14.1886 5.82641 14.1216ZM3.80085 13.6152C3.73381 13.548 3.69616 13.4569 3.69616 13.362C3.69616 13.2671 3.73381 13.176 3.80085 13.1088L4.30724 13.6152C4.24002 13.6822 4.14897 13.7199 4.05404 13.7199C3.95911 13.7199 3.86806 13.6822 3.80085 13.6152ZM7.09239 9.81725L11.6499 5.25973L12.1563 5.76612L7.59878 10.3236L7.09239 9.81725Z" fill="white"/>
</g>
<defs>
<clipPath id="clip0_1_822">
<rect width="19.25" height="15.5833" fill="white" transform="translate(-0.000572205)"/>
</clipPath>
</defs>
</svg>
