<svg width="360" height="415" viewBox="0 0 360 415" fill="none" xmlns="http://www.w3.org/2000/svg">
<mask id="mask0_1_260" style="mask-type:alpha" maskUnits="userSpaceOnUse" x="0" y="-10" width="360" height="345">
<path fill-rule="evenodd" clip-rule="evenodd" d="M360 -10H0V261.588V308.167V316.411C40.7315 327.691 105.969 335 179.5 335C253.636 335 319.341 327.571 360 316.132V308.167V261.867V-10Z" fill="#E5AD3E"/>
</mask>
<g mask="url(#mask0_1_260)">
<rect width="360" height="345" transform="translate(0 -10)" fill="#E5AD3E"/>
<rect y="-1015" width="360" height="1350" fill="url(#paint0_linear_1_260)"/>
<g opacity="0.7">
<circle cx="296.5" cy="206.5" r="11.5" fill="#F7E6C5"/>
</g>
<g opacity="0.7">
<path d="M300.626 140.389C306.544 139.321 311.142 141.181 312.701 142.245C312.701 142.245 313.014 142.404 313.791 143.198C315.345 144.785 317.576 156.589 315.051 157.662C313.032 158.52 310.584 154.316 309.613 152.107C310.092 156.3 310.42 164.838 307.901 165.44C304.751 166.192 302.377 153.13 303.416 158.795C304.456 164.461 301.569 170.085 299.229 168.489C297.358 167.213 297.121 164.907 297.236 163.913C295.424 166.931 291.149 172.079 288.548 168.533C285.947 164.987 290.351 161.432 292.878 160.097C291.046 160.078 287.577 159.35 288.361 156.594C289.144 153.838 295.413 153.108 298.45 153.088C295.782 152.903 290.516 151.779 290.799 148.766C291.153 145 306.842 146.738 304.022 146.079C301.201 145.421 293.23 141.724 300.626 140.389Z" fill="url(#paint1_linear_1_260)"/>
<path d="M316.349 138.984C316.862 137.985 316.472 137.206 316.213 136.941C315.417 137.98 313.452 141.189 310.633 144.735C305.061 151.744 295.69 161.54 293.149 164.184C290.608 166.827 290.854 166.624 292.668 165.121C294.728 163.415 310.456 146.618 311.41 145.529C312.364 144.44 315.707 140.234 316.349 138.984Z" fill="#9B1C1D"/>
<path d="M299.506 157.183C298.986 156.916 296.372 156.521 290.083 157.083" stroke="#9B1C1D" stroke-width="0.280961"/>
<path d="M300.771 156.716C301.034 157.238 301.411 159.855 300.806 166.14" stroke="#9B1C1D" stroke-width="0.280961"/>
<path d="M305.659 151.833C306.008 152.303 307.292 156.316 307.773 162.611" stroke="#9B1C1D" stroke-width="0.280961"/>
<path d="M310.683 144.638C310.212 144.291 306.195 143.02 299.898 142.56" stroke="#9B1C1D" stroke-width="0.280961"/>
<path d="M304.026 151.454C303.541 151.126 299.475 150.024 293.164 149.825" stroke="#9B1C1D" stroke-width="0.280961"/>
<path d="M311.392 145.31C311.741 145.78 313.033 148.209 313.514 154.504" stroke="#9B1C1D" stroke-width="0.280961"/>
<path d="M284 180.502C288.5 180.835 299.4 180.102 307 174.502" stroke="black" stroke-opacity="0.4" stroke-width="0.4"/>
<path d="M297.293 175.337C301.579 173.925 311.371 169.081 316.253 161.001" stroke="black" stroke-opacity="0.4" stroke-width="0.4"/>
</g>
<g opacity="0.7">
<path d="M71.5128 282.468C66.055 281.483 61.8137 283.199 60.3753 284.18C60.3753 284.18 60.0869 284.327 59.3703 285.059C57.9371 286.523 55.8792 297.411 58.2078 298.4C60.0706 299.192 62.3282 295.314 63.2242 293.277C62.7823 297.145 62.4794 305.02 64.8033 305.574C67.7083 306.268 69.8986 294.22 68.9398 299.446C67.9811 304.672 70.6439 309.859 72.8014 308.387C74.5275 307.21 74.7465 305.083 74.6403 304.167C76.3118 306.95 80.2545 311.699 82.6538 308.428C85.0531 305.157 80.9906 301.878 78.6594 300.647C80.3495 300.629 83.549 299.957 82.8267 297.415C82.1043 294.873 76.3215 294.201 73.5203 294.182C75.9815 294.011 80.8384 292.974 80.5771 290.196C80.2505 286.722 65.7798 288.324 68.3812 287.717C70.9825 287.11 78.3352 283.7 71.5128 282.468Z" fill="url(#paint2_linear_1_260)"/>
<path d="M57.0111 281.173C56.5377 280.251 56.8971 279.533 57.136 279.289C57.8706 280.247 59.6826 283.207 62.2828 286.478C67.4221 292.943 76.0657 301.979 78.4096 304.417C80.7535 306.855 80.5271 306.667 78.8535 305.281C76.9533 303.708 62.4462 288.215 61.5663 287.21C60.6864 286.205 57.6028 282.326 57.0111 281.173Z" fill="#9B1C1D"/>
<path d="M72.5461 297.959C73.0264 297.713 75.4372 297.349 81.2378 297.867" stroke="#9B1C1D" stroke-width="0.259152"/>
<path d="M71.3798 297.528C71.1366 298.01 70.7895 300.423 71.3474 306.22" stroke="#9B1C1D" stroke-width="0.259152"/>
<path d="M66.8712 293.024C66.549 293.457 65.3646 297.158 64.921 302.965" stroke="#9B1C1D" stroke-width="0.259152"/>
<path d="M62.237 286.388C62.6713 286.067 66.3768 284.895 72.185 284.471" stroke="#9B1C1D" stroke-width="0.259152"/>
<path d="M68.3771 292.675C68.8243 292.373 72.5752 291.356 78.3961 291.173" stroke="#9B1C1D" stroke-width="0.259152"/>
<path d="M61.5829 287.008C61.2607 287.441 60.0692 289.681 59.6257 295.488" stroke="#9B1C1D" stroke-width="0.259152"/>
<path d="M86.8488 319.467C82.6981 319.774 72.6442 319.098 65.6342 313.932" stroke="black" stroke-opacity="0.4" stroke-width="0.36895"/>
<path d="M74.5871 314.703C70.6341 313.4 61.6024 308.932 57.0992 301.479" stroke="black" stroke-opacity="0.4" stroke-width="0.36895"/>
</g>
<g opacity="0.7">
<path d="M249.98 72.8298C246.941 72.2811 244.579 73.2366 243.778 73.783C243.778 73.783 243.617 73.865 243.218 74.2727C242.42 75.0879 241.274 81.1512 242.571 81.7022C243.608 82.143 244.866 79.9836 245.364 78.8488C245.118 81.0029 244.95 85.3884 246.244 85.6974C247.862 86.0836 249.081 79.3741 248.547 82.2843C248.014 85.1945 249.496 88.0834 250.698 87.2638C251.659 86.6082 251.781 85.4237 251.722 84.9134C252.653 86.4634 254.849 89.108 256.185 87.2866C257.521 85.4651 255.258 83.6387 253.96 82.9532C254.901 82.9432 256.683 82.5693 256.281 81.1536C255.879 79.7378 252.658 79.3633 251.098 79.353C252.469 79.2578 255.174 78.6805 255.028 77.133C254.846 75.1985 246.788 76.0909 248.236 75.7528C249.685 75.4147 253.78 73.5156 249.98 72.8298Z" fill="url(#paint3_linear_1_260)"/>
<path d="M241.904 72.1087C241.641 71.5952 241.841 71.195 241.974 71.0592C242.383 71.5928 243.392 73.2411 244.84 75.0627C247.702 78.6631 252.516 83.695 253.821 85.0527C255.126 86.4105 255 86.3061 254.068 85.5343C253.01 84.6579 244.931 76.0301 244.441 75.4705C243.951 74.9109 242.234 72.7507 241.904 72.1087Z" fill="#9B1C1D"/>
<path d="M250.556 81.4566C250.823 81.3193 252.166 81.1168 255.396 81.4053" stroke="#9B1C1D" stroke-width="0.144319"/>
<path d="M249.906 81.2163C249.771 81.4847 249.577 82.8286 249.888 86.0569" stroke="#9B1C1D" stroke-width="0.144319"/>
<path d="M247.395 78.708C247.216 78.9492 246.556 81.0106 246.309 84.2443" stroke="#9B1C1D" stroke-width="0.144319"/>
<path d="M244.815 75.0128C245.057 74.8342 247.12 74.1815 250.355 73.9453" stroke="#9B1C1D" stroke-width="0.144319"/>
<path d="M248.234 78.514C248.483 78.3456 250.572 77.7791 253.814 77.6773" stroke="#9B1C1D" stroke-width="0.144319"/>
<path d="M244.45 75.358C244.271 75.5993 243.607 76.8467 243.36 80.0805" stroke="#9B1C1D" stroke-width="0.144319"/>
<path d="M258.521 93.4335C256.209 93.6048 250.61 93.2281 246.707 90.3516" stroke="black" stroke-opacity="0.4" stroke-width="0.205465"/>
<path d="M251.692 90.7807C249.491 90.0553 244.461 87.567 241.954 83.4166" stroke="black" stroke-opacity="0.4" stroke-width="0.205465"/>
</g>
<g opacity="0.7">
<path d="M21.5421 219.83C24.5815 219.281 26.9435 220.237 27.7445 220.783C27.7445 220.783 27.9051 220.865 28.3042 221.273C29.1023 222.088 30.2483 228.151 28.9516 228.702C27.9142 229.143 26.6569 226.984 26.158 225.849C26.4041 228.003 26.5728 232.388 25.2786 232.697C23.6608 233.084 22.4411 226.374 22.975 229.284C23.5089 232.195 22.026 235.083 20.8245 234.264C19.8633 233.608 19.7413 232.424 19.8004 231.913C18.8696 233.463 16.6739 236.108 15.3378 234.287C14.0017 232.465 16.264 230.639 17.5622 229.953C16.621 229.943 14.8393 229.569 15.2415 228.154C15.6438 226.738 18.8642 226.363 20.4241 226.353C19.0536 226.258 16.3488 225.681 16.4943 224.133C16.6762 222.199 24.7348 223.091 23.2861 222.753C21.8374 222.415 17.7428 220.516 21.5421 219.83Z" fill="url(#paint4_linear_1_260)"/>
<path d="M29.618 219.109C29.8817 218.595 29.6815 218.195 29.5485 218.059C29.1394 218.593 28.1303 220.241 26.6823 222.063C23.8202 225.663 19.0067 230.695 17.7014 232.053C16.3961 233.411 16.5222 233.306 17.4542 232.534C18.5124 231.658 26.5913 223.03 27.0813 222.471C27.5713 221.911 29.2885 219.751 29.618 219.109Z" fill="#9B1C1D"/>
<path d="M20.9667 228.457C20.6993 228.319 19.3567 228.117 16.1264 228.405" stroke="#9B1C1D" stroke-width="0.144319"/>
<path d="M21.6163 228.216C21.7517 228.485 21.945 229.829 21.6343 233.057" stroke="#9B1C1D" stroke-width="0.144319"/>
<path d="M24.127 225.708C24.3065 225.949 24.966 228.011 25.2131 231.244" stroke="#9B1C1D" stroke-width="0.144319"/>
<path d="M26.7077 222.013C26.4659 221.834 24.4023 221.181 21.1678 220.945" stroke="#9B1C1D" stroke-width="0.144319"/>
<path d="M23.2884 225.514C23.0393 225.346 20.9505 224.779 17.7089 224.677" stroke="#9B1C1D" stroke-width="0.144319"/>
<path d="M27.072 222.358C27.2515 222.599 27.915 223.847 28.162 227.081" stroke="#9B1C1D" stroke-width="0.144319"/>
<path d="M13.0016 240.434C15.3131 240.605 20.912 240.228 24.8158 237.352" stroke="black" stroke-opacity="0.4" stroke-width="0.205465"/>
<path d="M19.83 237.781C22.0314 237.055 27.0611 234.567 29.5689 230.417" stroke="black" stroke-opacity="0.4" stroke-width="0.205465"/>
</g>
</g>
<g opacity="0.6">
<g filter="url(#filter0_f_1_260)">
<circle cx="296.5" cy="206.5" r="84.5" fill="white" fill-opacity="0.9"/>
</g>
<g filter="url(#filter1_f_1_260)">
<circle cx="296.5" cy="206.5" r="39.5" fill="white" fill-opacity="0.1"/>
</g>
</g>
<defs>
<filter id="filter0_f_1_260" x="88" y="-2" width="417" height="417" filterUnits="userSpaceOnUse" color-interpolation-filters="sRGB">
<feFlood flood-opacity="0" result="BackgroundImageFix"/>
<feBlend mode="normal" in="SourceGraphic" in2="BackgroundImageFix" result="shape"/>
<feGaussianBlur stdDeviation="62" result="effect1_foregroundBlur_1_260"/>
</filter>
<filter id="filter1_f_1_260" x="243" y="153" width="107" height="107" filterUnits="userSpaceOnUse" color-interpolation-filters="sRGB">
<feFlood flood-opacity="0" result="BackgroundImageFix"/>
<feBlend mode="normal" in="SourceGraphic" in2="BackgroundImageFix" result="shape"/>
<feGaussianBlur stdDeviation="7" result="effect1_foregroundBlur_1_260"/>
</filter>
<linearGradient id="paint0_linear_1_260" x1="180" y1="-1015" x2="180" y2="335" gradientUnits="userSpaceOnUse">
<stop offset="0.27163" stop-color="#3B2D89"/>
<stop offset="0.348865" stop-color="#4E3B81"/>
<stop offset="0.426246" stop-color="#725671"/>
<stop offset="0.526598" stop-color="#B08555"/>
<stop offset="0.631787" stop-color="#D19E47"/>
<stop offset="0.714004" stop-color="#E5AD3E"/>
</linearGradient>
<linearGradient id="paint1_linear_1_260" x1="307.39" y1="161.637" x2="295.415" y2="150.358" gradientUnits="userSpaceOnUse">
<stop offset="0.505235" stop-color="#C12122"/>
<stop offset="0.517965" stop-color="#D52620"/>
</linearGradient>
<linearGradient id="paint2_linear_1_260" x1="65.2742" y1="302.067" x2="76.3195" y2="291.664" gradientUnits="userSpaceOnUse">
<stop offset="0.505235" stop-color="#C12122"/>
<stop offset="0.517965" stop-color="#D52620"/>
</linearGradient>
<linearGradient id="paint3_linear_1_260" x1="246.506" y1="83.7441" x2="252.657" y2="77.9505" gradientUnits="userSpaceOnUse">
<stop offset="0.505235" stop-color="#C12122"/>
<stop offset="0.517965" stop-color="#D52620"/>
</linearGradient>
<linearGradient id="paint4_linear_1_260" x1="25.0164" y1="230.744" x2="18.8653" y2="224.951" gradientUnits="userSpaceOnUse">
<stop offset="0.505235" stop-color="#C12122"/>
<stop offset="0.517965" stop-color="#D52620"/>
</linearGradient>
</defs>
</svg>
