<svg width="24" height="24" viewBox="0 0 24 24" fill="none" xmlns="http://www.w3.org/2000/svg">
<path fill-rule="evenodd" clip-rule="evenodd" d="M10.8 24C10.1716 24 9.63552 23.5452 9.53316 22.9251C9.43896 22.4235 9.0778 22.0137 8.59202 21.8571C8.19618 21.7213 7.80915 21.5609 7.43316 21.3771C6.98576 21.1483 6.44904 21.1825 6.0343 21.4663C5.53241 21.8272 4.84295 21.7713 4.40573 21.3343L2.70516 19.6337C2.24749 19.176 2.18803 18.4544 2.56459 17.928C2.855 17.5037 2.89683 16.9567 2.6743 16.4931C2.52768 16.1711 2.39836 15.8415 2.28687 15.5057C2.12722 14.9766 1.6865 14.5801 1.14345 14.4771C0.488556 14.3725 0.00510533 13.81 1.64201e-05 13.1469V11.0194C-0.00347014 10.255 0.548652 9.60116 1.30287 9.47657C1.87504 9.36773 2.35281 8.97583 2.57145 8.436C2.63659 8.284 2.70516 8.13314 2.77716 7.98343C3.06794 7.42362 3.02777 6.74933 2.67259 6.228C2.22839 5.61065 2.2966 4.76244 2.83373 4.224L4.08345 2.97429C4.69981 2.3577 5.67192 2.2779 6.38059 2.78571L6.42002 2.81314C6.9492 3.16931 7.62256 3.23381 8.20973 2.98457C8.83788 2.75848 9.30084 2.21869 9.42859 1.56343L9.44573 1.50514C9.58689 0.637664 10.336 0.000353491 11.2149 1.95278e-07H12.7234C13.626 -0.000412202 14.3964 0.652409 14.544 1.54286L14.5714 1.66286C14.6926 2.29058 15.1316 2.81008 15.7303 3.03429C16.3073 3.28194 16.9709 3.21727 17.4892 2.86286L17.5749 2.80114C18.3019 2.27716 19.3017 2.35775 19.9354 2.99143L21.0857 4.14343C21.6622 4.72313 21.7347 5.63473 21.2572 6.29829C20.8831 6.85289 20.8353 7.56557 21.132 8.16514L21.2057 8.33657C21.4461 8.92193 21.9658 9.34626 22.5874 9.46457C23.3998 9.597 23.9973 10.2975 24 11.1206V13.0286C23.9998 13.7544 23.4748 14.3736 22.7589 14.4926C22.17 14.6055 21.6903 15.0319 21.5092 15.6034C21.4292 15.832 21.34 16.0606 21.2417 16.2891C21.013 16.7914 21.0637 17.3766 21.3754 17.832C21.7868 18.4042 21.7229 19.1903 21.2246 19.6886L19.6286 21.2863C19.1722 21.7426 18.4524 21.8014 17.928 21.4251C17.4903 21.1261 16.9232 21.0931 16.4537 21.3394C16.1193 21.5051 15.7759 21.6522 15.4252 21.78C14.9349 21.9491 14.5734 22.3689 14.4789 22.8789C14.3789 23.5205 13.8288 23.9951 13.1794 24H10.8Z" fill="black"/>
<path fill-rule="evenodd" clip-rule="evenodd" d="M16.0013 11.9997C16.0013 14.2085 14.2107 15.9991 12.0019 15.9991C9.79305 15.9991 8.00244 14.2085 8.00244 11.9997C8.00244 9.79085 9.79305 8.00024 12.0019 8.00024C14.2107 8.00024 16.0013 9.79085 16.0013 11.9997Z" fill="white"/>
</svg>
