<svg width="16" height="15" viewBox="0 0 16 15" fill="none" xmlns="http://www.w3.org/2000/svg">
<path fill-rule="evenodd" clip-rule="evenodd" d="M10.497 7.41463C10.497 8.79366 9.37903 9.91158 8 9.91158C6.62097 9.91158 5.50305 8.79366 5.50305 7.41463C5.50305 6.0356 6.62097 4.91768 8 4.91768C9.37903 4.91768 10.497 6.0356 10.497 7.41463Z" stroke="white" stroke-width="1.42683" stroke-linecap="round" stroke-linejoin="round"/>
<path d="M14.6585 8.12806C15.0525 8.12806 15.372 7.80865 15.372 7.41464C15.372 7.02063 15.0525 6.70123 14.6585 6.70123V8.12806ZM12.9939 6.70123C12.5999 6.70123 12.2805 7.02063 12.2805 7.41464C12.2805 7.80865 12.5999 8.12806 12.9939 8.12806V6.70123ZM3.0061 8.12806C3.40011 8.12806 3.71951 7.80865 3.71951 7.41464C3.71951 7.02063 3.40011 6.70123 3.0061 6.70123V8.12806ZM1.34146 6.70123C0.947455 6.70123 0.628048 7.02063 0.628048 7.41464C0.628048 7.80865 0.947455 8.12806 1.34146 8.12806V6.70123ZM8.71341 0.756104C8.71341 0.362095 8.39401 0.0426888 8 0.0426888C7.60599 0.0426888 7.28659 0.362095 7.28659 0.756104H8.71341ZM7.28659 2.42074C7.28659 2.81475 7.60599 3.13415 8 3.13415C8.39401 3.13415 8.71341 2.81475 8.71341 2.42074H7.28659ZM8.71341 12.4085C8.71341 12.0145 8.39401 11.6951 8 11.6951C7.60599 11.6951 7.28659 12.0145 7.28659 12.4085H8.71341ZM7.28659 14.0732C7.28659 14.4672 7.60599 14.7866 8 14.7866C8.39401 14.7866 8.71341 14.4672 8.71341 14.0732H7.28659ZM13.213 3.21057C13.4916 2.93196 13.4916 2.48025 13.213 2.20165C12.9344 1.92304 12.4827 1.92304 12.2041 2.20165L13.213 3.21057ZM11.0265 3.37926C10.7479 3.65786 10.7479 4.10957 11.0265 4.38818C11.3051 4.66678 11.7568 4.66678 12.0354 4.38818L11.0265 3.37926ZM4.97353 11.45C5.25214 11.1714 5.25214 10.7197 4.97353 10.4411C4.69493 10.1625 4.24322 10.1625 3.96461 10.4411L4.97353 11.45ZM2.787 11.6187C2.5084 11.8973 2.5084 12.349 2.787 12.6276C3.06561 12.9062 3.51732 12.9062 3.79592 12.6276L2.787 11.6187ZM3.79592 2.20165C3.51732 1.92304 3.06561 1.92304 2.787 2.20165C2.5084 2.48025 2.5084 2.93196 2.787 3.21057L3.79592 2.20165ZM3.96461 4.38818C4.24322 4.66678 4.69493 4.66678 4.97353 4.38818C5.25214 4.10957 5.25214 3.65786 4.97353 3.37926L3.96461 4.38818ZM12.0363 10.4421C11.7577 10.1634 11.306 10.1634 11.0274 10.4421C10.7488 10.7207 10.7488 11.1724 11.0274 11.451L12.0363 10.4421ZM12.2041 12.6276C12.4827 12.9062 12.9344 12.9062 13.213 12.6276C13.4916 12.349 13.4916 11.8973 13.213 11.6187L12.2041 12.6276ZM14.6585 6.70123H12.9939V8.12806H14.6585V6.70123ZM3.0061 6.70123H1.34146V8.12806H3.0061V6.70123ZM7.28659 0.756104V2.42074H8.71341V0.756104H7.28659ZM7.28659 12.4085V14.0732H8.71341V12.4085H7.28659ZM12.2041 2.20165L11.0265 3.37926L12.0354 4.38818L13.213 3.21057L12.2041 2.20165ZM3.96461 10.4411L2.787 11.6187L3.79592 12.6276L4.97353 11.45L3.96461 10.4411ZM2.787 3.21057L3.96461 4.38818L4.97353 3.37926L3.79592 2.20165L2.787 3.21057ZM11.0274 11.451L12.2041 12.6276L13.213 11.6187L12.0363 10.4421L11.0274 11.451Z" fill="white"/>
</svg>
