<svg width="21" height="16" viewBox="0 0 21 16" fill="none" xmlns="http://www.w3.org/2000/svg">
<path fill-rule="evenodd" clip-rule="evenodd" d="M12.167 14.086C12.1891 14.5672 11.8181 14.9757 11.337 15H9.66399C9.18291 14.9757 8.81191 14.5672 8.83399 14.086V12.311C6.47523 11.4454 5.13685 8.95221 5.71885 6.50798C6.30086 4.06376 8.61925 2.44131 11.115 2.73167C13.6107 3.02203 15.4947 5.13341 15.5 7.64596C15.4934 9.75129 14.1565 11.6224 12.167 12.311V14.086Z" stroke="black" stroke-width="1.5" stroke-linecap="round" stroke-linejoin="round"/>
<path d="M12.167 13.061C12.5812 13.061 12.917 12.7252 12.917 12.311C12.917 11.8968 12.5812 11.561 12.167 11.561V13.061ZM8.833 11.561C8.41879 11.561 8.083 11.8968 8.083 12.311C8.083 12.7252 8.41879 13.061 8.833 13.061V11.561ZM20 8.396C20.4142 8.396 20.75 8.06021 20.75 7.646C20.75 7.23179 20.4142 6.896 20 6.896V8.396ZM18 6.896C17.5858 6.896 17.25 7.23179 17.25 7.646C17.25 8.06021 17.5858 8.396 18 8.396V6.896ZM3 8.396C3.41421 8.396 3.75 8.06021 3.75 7.646C3.75 7.23179 3.41421 6.896 3 6.896V8.396ZM1 6.896C0.585786 6.896 0.25 7.23179 0.25 7.646C0.25 8.06021 0.585786 8.396 1 8.396V6.896ZM17.7449 1.53371C18.0397 1.24269 18.0427 0.767826 17.7517 0.473068C17.4607 0.17831 16.9858 0.175277 16.6911 0.466293L17.7449 1.53371ZM15.2731 1.86629C14.9783 2.15731 14.9753 2.63217 15.2663 2.92693C15.5573 3.22169 16.0322 3.22472 16.3269 2.93371L15.2731 1.86629ZM5.72768 13.426C6.02203 13.1345 6.02439 12.6597 5.73296 12.3653C5.44153 12.071 4.96666 12.0686 4.67231 12.36L5.72768 13.426ZM3.25831 13.76C2.96397 14.0515 2.96161 14.5263 3.25304 14.8207C3.54447 15.115 4.01934 15.1174 4.31369 14.826L3.25831 13.76ZM16.6933 14.826C16.9877 15.1174 17.4625 15.115 17.754 14.8207C18.0454 14.5263 18.043 14.0515 17.7487 13.76L16.6933 14.826ZM16.3347 12.36C16.0403 12.0686 15.5655 12.071 15.274 12.3653C14.9826 12.6597 14.985 13.1345 15.2793 13.426L16.3347 12.36ZM4.67307 2.93371C4.96783 3.22472 5.44269 3.22169 5.73371 2.92693C6.02472 2.63217 6.02169 2.15731 5.72693 1.86629L4.67307 2.93371ZM4.30893 0.466293C4.01417 0.175277 3.53931 0.17831 3.24829 0.473068C2.95728 0.767826 2.96031 1.24269 3.25507 1.53371L4.30893 0.466293ZM12.167 11.561H8.833V13.061H12.167V11.561ZM20 6.896H18V8.396H20V6.896ZM3 6.896H1V8.396H3V6.896ZM16.6911 0.466293L15.2731 1.86629L16.3269 2.93371L17.7449 1.53371L16.6911 0.466293ZM4.67231 12.36L3.25831 13.76L4.31369 14.826L5.72768 13.426L4.67231 12.36ZM17.7487 13.76L16.3347 12.36L15.2793 13.426L16.6933 14.826L17.7487 13.76ZM5.72693 1.86629L4.30893 0.466293L3.25507 1.53371L4.67307 2.93371L5.72693 1.86629Z" fill="black"/>
</svg>
