<svg width="16" height="17" viewBox="0 0 16 17" fill="none" xmlns="http://www.w3.org/2000/svg">
<path d="M10.0002 5.4165C9.58596 5.4165 9.25018 5.75229 9.25018 6.1665C9.25018 6.58072 9.58596 6.9165 10.0002 6.9165V5.4165ZM12.6668 6.9165C13.0811 6.9165 13.4168 6.58072 13.4168 6.1665C13.4168 5.75229 13.0811 5.4165 12.6668 5.4165V6.9165ZM13.4165 6.16667C13.4165 5.75246 13.0808 5.41667 12.6665 5.41667C12.2523 5.41667 11.9165 5.75246 11.9165 6.16667H13.4165ZM11.9165 8.83334C11.9165 9.24755 12.2523 9.58334 12.6665 9.58334C13.0808 9.58334 13.4165 9.24755 13.4165 8.83334H11.9165ZM13.1967 6.69694C13.4895 6.40405 13.4895 5.92917 13.1967 5.63628C12.9038 5.34339 12.4289 5.34339 12.136 5.63628L13.1967 6.69694ZM7.99966 10.8333L7.46933 11.3636C7.60998 11.5043 7.80075 11.5833 7.99966 11.5833C8.19857 11.5833 8.38934 11.5043 8.52999 11.3636L7.99966 10.8333ZM5.99966 8.83328L6.52999 8.30295C6.38934 8.1623 6.19857 8.08328 5.99966 8.08328C5.80075 8.08328 5.60998 8.1623 5.46933 8.30295L5.99966 8.83328ZM2.80266 10.9696C2.50977 11.2625 2.50977 11.7374 2.80266 12.0303C3.09556 12.3232 3.57043 12.3232 3.86332 12.0303L2.80266 10.9696ZM10.0002 6.9165H12.6668V5.4165H10.0002V6.9165ZM11.9165 6.16667V8.83334H13.4165V6.16667H11.9165ZM12.136 5.63628L7.46933 10.3029L8.52999 11.3636L13.1967 6.69694L12.136 5.63628ZM8.52999 10.3029L6.52999 8.30295L5.46933 9.36361L7.46933 11.3636L8.52999 10.3029ZM5.46933 8.30295L2.80266 10.9696L3.86332 12.0303L6.52999 9.36361L5.46933 8.30295Z" fill="white"/>
</svg>
